<svg width="512" height="512" viewBox="0 0 512 512" fill="none" xmlns="http://www.w3.org/2000/svg">
  <defs>
    <linearGradient id="vibeGradient" x1="0%" y1="0%" x2="100%" y2="100%">
      <stop offset="0%" stop-color="#764ba2" /> <stop offset="100%" stop-color="#667eea" /> </linearGradient>
  </defs>

  <path d="M384 202H128C101.5 202 80 223.5 80 250V426C80 452.5 101.5 474 128 474H384C410.5 474 432 452.5 432 426V250C432 223.5 410.5 202 384 202Z" fill="#000" fill-opacity="0.2"/>

  <path d="M384 192H128C101.5 192 80 213.5 80 240V416C80 442.5 101.5 464 128 464H384C410.5 464 432 442.5 432 416V240C432 213.5 410.5 192 384 192ZM160 192V128C160 74.98 202.98 32 256 32C309.02 32 352 74.98 352 128V192H320V128C320 92.65 291.35 64 256 64C220.65 64 192 92.65 192 128V192H160Z" fill="url(#vibeGradient)"/>
  
  <path d="M128 210H384V240H128V210Z" fill="white" fill-opacity="0.1"/>
</svg>
